<?xml version="1.0" standalone="no"?>
<!DOCTYPE svg PUBLIC "-//W3C//DTD SVG 20010904//EN"
 "http://www.w3.org/TR/2001/REC-SVG-20010904/DTD/svg10.dtd">
<svg version="1.0" xmlns="http://www.w3.org/2000/svg"
 width="1500.000000pt" height="1500.000000pt" viewBox="0 0 1500.000000 1500.000000"
 preserveAspectRatio="xMidYMid meet">
<metadata>
Created by potrace 1.16, written by Peter Selinger 2001-2019
</metadata>
<g transform="translate(0.000000,1500.000000) scale(0.100000,-0.100000)"
fill="#000000" stroke="none">
<path d="M6320 10620 c-58 -4 -116 -11 -130 -15 -46 -14 -82 -48 -106 -99 -25
-53 -33 -140 -14 -151 7 -4 8 -45 4 -118 -5 -92 -4 -119 10 -151 18 -43 17
-51 -25 -361 -57 -420 -122 -791 -148 -850 -10 -22 -66 -104 -125 -182 -102
-135 -108 -145 -117 -207 -8 -60 -29 -523 -29 -659 l0 -59 -66 37 c-57 32 -73
37 -111 32 -150 -17 -237 -263 -138 -392 26 -36 50 -46 213 -95 l103 -31 -3
-127 -3 -126 -30 -6 c-16 -4 -39 -11 -50 -17 -16 -9 -54 -4 -165 18 -163 33
-178 31 -230 -27 -93 -107 -51 -325 75 -386 42 -21 45 -21 162 -5 110 15 119
15 128 0 24 -40 55 -63 85 -63 l30 0 0 -80 c0 -95 19 -89 -194 -59 -164 22
-182 20 -229 -29 -39 -40 -59 -99 -59 -168 1 -71 17 -116 61 -167 48 -54 79
-60 239 -48 76 6 148 11 160 11 21 0 22 -3 22 -114 l0 -113 -52 -7 c-29 -3
-72 -6 -95 -6 -114 0 -179 -158 -118 -287 45 -97 134 -125 248 -78 18 8 19 -3
15 -276 -3 -211 -8 -292 -18 -314 -8 -19 -13 -68 -14 -130 0 -87 3 -107 26
-155 29 -62 55 -93 99 -116 93 -48 400 -69 889 -61 567 10 667 32 728 165 33
73 42 213 17 287 -13 40 -18 108 -22 334 -6 276 -5 284 13 276 61 -25 113 5
153 89 32 66 28 124 -13 185 -19 28 -37 60 -41 71 -9 29 -63 70 -92 70 -24 0
-25 2 -19 38 3 20 6 50 6 65 l0 29 43 -25 c23 -14 61 -30 84 -36 l42 -11 -15
-37 c-28 -66 11 -187 67 -207 58 -20 179 73 179 138 0 42 -44 104 -93 130
l-36 20 26 30 c44 52 63 105 62 176 0 109 -46 212 -117 260 -30 21 -32 25 -15
31 32 12 71 65 78 106 3 24 -1 62 -11 103 -11 40 -18 104 -18 164 l-1 98 59
53 c49 44 59 59 58 84 -1 32 -59 125 -120 193 l-34 38 35 0 c27 0 37 5 42 20
3 11 3 25 0 30 -4 6 -10 114 -13 240 -7 224 -8 229 -31 254 -14 14 -30 26 -38
26 -9 0 -13 15 -13 48 0 68 -24 142 -65 199 -19 26 -58 82 -87 123 -28 41 -61
87 -73 101 -17 21 -23 46 -28 109 -8 95 -16 113 -115 236 -90 114 -138 195
-152 257 -53 249 -152 939 -151 1052 3 241 9 342 21 367 11 23 11 38 1 82 -22
97 -71 150 -156 165 -75 13 -326 20 -445 11z m369 -1240 c-6 -4 17 -9 51 -12
46 -3 66 -9 77 -23 12 -18 10 -21 -19 -36 -75 -38 -242 -50 -464 -34 -61 5
-94 4 -94 -3 0 -15 20 -20 137 -33 106 -11 261 -7 334 10 l37 8 7 -71 c17
-176 58 -356 82 -356 9 0 12 7 9 18 -17 57 -27 113 -45 240 -27 182 -27 180 7
195 15 6 30 16 34 22 5 5 5 -5 2 -22 -4 -18 -3 -33 2 -33 5 0 10 -35 10 -78 1
-42 7 -97 14 -122 7 -25 14 -56 17 -70 8 -46 49 -135 61 -133 6 2 9 -3 6 -11
-9 -25 86 -188 122 -209 8 -4 14 -15 14 -24 0 -9 6 -13 14 -10 9 4 13 1 10 -7
-3 -7 7 -25 21 -40 59 -64 57 -51 70 -391 3 -82 7 -298 9 -480 1 -181 5 -382
7 -445 3 -98 2 -116 -11 -116 -8 0 -25 -4 -37 -8 l-23 -7 0 583 c-1 321 -5
615 -9 653 -8 67 -12 76 -94 192 -48 68 -103 148 -123 178 -35 53 -54 68 -54
44 0 -6 44 -76 98 -156 53 -79 108 -163 122 -186 l25 -42 3 -637 3 -636 -28
-6 c-109 -20 -107 -21 -123 26 -41 116 -182 113 -220 -5 l-15 -47 -130 0
c-134 0 -353 13 -580 33 l-130 12 0 45 0 45 49 3 c30 2 92 -8 167 -27 139 -36
173 -38 217 -11 54 33 70 116 32 177 -21 34 -97 95 -193 153 -31 19 -60 42
-63 52 -13 43 -128 118 -180 118 -22 0 -24 4 -24 56 0 77 -24 69 -28 -9 -2
-31 -7 -57 -12 -57 -5 0 -30 12 -55 27 -29 18 -43 33 -40 43 3 8 7 146 11 305
3 160 9 326 12 370 7 85 9 89 88 183 99 119 191 285 217 392 17 71 20 87 42
240 9 58 21 110 28 116 17 16 110 41 185 49 61 7 62 7 62 -18 0 -14 3 -32 6
-41 11 -30 24 -16 24 27 l0 42 130 1 c72 0 125 -3 119 -6z m732 -1245 c65 -86
81 -121 87 -191 4 -58 3 -63 -22 -79 -19 -13 -37 -16 -70 -11 -74 11 -73 9
-79 216 l-6 185 22 -29 c12 -16 43 -57 68 -91z m154 -329 c18 -13 20 -31 23
-229 l4 -214 -73 -6 c-41 -2 -77 -3 -81 0 -5 2 -8 23 -8 47 0 23 -11 108 -25
190 -13 81 -22 160 -19 174 5 25 9 27 42 24 20 -1 48 4 62 12 33 19 52 19 75
2z m-1858 -149 c92 -50 113 -66 113 -84 0 -28 3 -28 -66 2 -32 14 -59 23 -62
21 -10 -10 13 -28 64 -51 30 -13 54 -28 54 -33 0 -17 -12 -21 -36 -10 -36 17
-42 0 -10 -26 27 -21 28 -25 17 -56 -6 -19 -18 -44 -26 -57 -15 -22 -17 -22
-53 -8 -20 8 -97 33 -170 55 -73 22 -141 44 -152 50 -10 5 -26 30 -36 55 -39
102 21 247 111 267 11 3 47 -10 80 -29 33 -18 111 -61 172 -96z m1653 78 c0
-25 11 -111 25 -191 32 -183 32 -198 1 -212 -23 -10 -25 -8 -35 35 -13 52 -27
372 -18 397 12 31 27 15 27 -29z m-1406 -149 c18 -7 52 -37 76 -65 25 -30 80
-75 131 -107 139 -87 181 -152 128 -200 -20 -18 -22 -18 -102 0 -45 10 -116
25 -157 34 -41 9 -77 17 -79 18 -1 2 4 13 13 26 17 23 22 58 9 58 -5 -1 -17
-15 -28 -33 -29 -46 -82 -72 -128 -63 -30 6 -37 11 -37 30 0 13 7 29 15 36 18
15 50 99 71 188 9 37 18 73 20 80 5 16 27 15 68 -2z m1593 -341 c21 -15 126
-156 120 -162 -2 -1 -20 2 -41 8 -50 14 -68 -3 -100 -92 -13 -35 -32 -84 -42
-109 -17 -46 -17 -46 9 -100 15 -30 42 -77 60 -104 40 -62 44 -123 10 -157
-20 -21 -25 -22 -65 -10 -30 9 -61 31 -100 72 l-58 58 0 111 c0 103 2 115 30
170 41 81 47 135 24 200 -22 61 -16 74 46 107 50 27 77 29 107 8z m-662 -89
c26 -11 36 -23 44 -52 6 -21 9 -39 8 -40 -1 -1 -39 -4 -84 -7 -92 -6 -100 0
-81 54 7 20 22 36 42 45 39 16 31 16 71 0z m-1498 -156 l113 -23 9 -36 c6 -20
13 -64 17 -98 l7 -63 -62 0 c-33 0 -61 -4 -61 -9 0 -14 27 -21 76 -21 32 0 44
-4 44 -15 0 -17 -11 -20 -152 -36 -99 -11 -109 -10 -139 7 -18 11 -41 37 -53
58 -24 48 -33 141 -16 190 14 42 56 79 85 73 11 -2 71 -14 132 -27z m340 -33
c28 -19 68 -31 151 -46 62 -11 129 -28 150 -38 65 -31 76 -94 22 -123 -11 -6
-68 -17 -126 -25 -59 -9 -118 -18 -132 -22 -23 -5 -24 -4 -18 22 26 104 12
117 -25 23 -26 -69 -64 -102 -126 -114 -43 -8 -55 7 -41 49 11 31 4 172 -12
242 -13 56 1 68 67 63 34 -3 65 -13 90 -31z m335 -317 c21 -6 44 -21 53 -33
18 -25 20 -88 4 -104 -9 -9 -8 -18 5 -37 17 -27 21 -82 8 -104 -7 -10 -24 -10
-76 -3 -79 11 -92 18 -48 27 36 7 47 27 26 49 -25 24 -104 16 -104 -11 0 -15
-8 -17 -60 -8 l-35 6 2 106 c1 59 2 110 2 115 1 11 181 8 223 -3z m396 -32
l-3 -43 -82 -3 c-75 -3 -83 -5 -83 -22 0 -18 7 -20 80 -20 l80 0 0 -40 0 -40
-80 0 c-79 0 -80 0 -80 -25 0 -25 1 -25 84 -25 91 0 102 -7 90 -56 -6 -23 -9
-24 -93 -24 -54 0 -105 6 -134 16 l-47 16 0 147 c0 81 3 151 7 154 3 4 64 7
135 7 l129 0 -3 -42z m324 20 c2 -13 2 -33 0 -45 -4 -22 -9 -23 -83 -23 -46 0
-79 -4 -79 -10 0 -5 0 -13 0 -17 0 -5 35 -10 77 -13 l78 -5 3 -37 3 -38 -79 0
c-79 0 -92 -6 -92 -41 0 -5 41 -9 90 -9 l90 0 0 -40 c0 -38 -1 -40 -32 -41
-55 0 -192 -1 -215 0 -23 1 -23 2 -23 171 l0 170 129 0 c127 0 130 -1 133 -22z
m291 8 c44 -18 67 -56 67 -110 0 -37 -5 -48 -31 -70 l-31 -27 27 -39 c15 -22
34 -45 41 -51 25 -21 14 -29 -40 -29 -53 0 -54 1 -92 53 -22 28 -46 52 -54 52
-12 0 -15 -12 -13 -52 l2 -53 -52 0 -52 0 1 108 c1 59 2 135 3 170 l1 62 95 0
c58 0 108 -5 128 -14z m450 -274 c14 -24 19 -51 19 -102 -1 -39 3 -70 8 -70
14 0 23 65 18 121 -4 42 -3 47 9 37 43 -35 79 -162 64 -227 -20 -89 -99 -161
-159 -146 -15 4 -53 22 -84 42 l-58 34 0 150 c0 147 1 150 25 175 22 22 32 25
82 22 53 -3 58 -6 76 -36z m-2025 1 c172 -23 205 -30 214 -46 9 -18 6 -19 -57
-15 -41 2 -67 -1 -67 -7 1 -14 62 -28 98 -22 29 5 32 3 38 -25 9 -44 7 -131
-3 -146 -6 -10 -58 -16 -197 -22 -104 -5 -200 -9 -212 -10 -67 -1 -127 128
-102 219 11 40 57 101 77 101 4 0 99 -12 211 -27z m412 -16 c43 -15 60 -47 60
-114 0 -29 5 -53 10 -53 10 0 15 42 12 94 l-2 29 79 -7 c108 -9 193 -35 207
-65 27 -54 -8 -82 -126 -100 -130 -20 -213 -43 -266 -73 -28 -15 -62 -28 -76
-28 l-26 0 5 108 c3 59 0 127 -6 152 -9 38 -8 47 6 58 21 15 77 15 123 -1z
m70 -478 c85 -24 92 -28 66 -35 -19 -4 -53 -1 -90 9 -58 14 -140 12 -186 -7
-12 -5 -15 5 -15 57 l0 64 65 -31 c36 -17 108 -42 160 -57z m1230 2 c0 -54 4
-81 13 -84 8 -3 7 -9 -7 -19 -17 -14 -18 -34 -13 -449 4 -363 7 -444 21 -494
17 -61 20 -153 8 -214 -19 -91 -125 -106 -765 -106 -229 0 -417 -3 -417 -7 0
-5 -5 -8 -11 -8 -5 0 -7 5 -4 10 3 6 -3 10 -14 10 -11 0 -23 -4 -26 -10 -3 -5
-14 -10 -23 -9 -14 0 -13 2 3 8 l20 8 -20 6 c-20 7 -39 8 -142 11 -28 0 -49 4
-47 8 2 4 -1 10 -7 14 -6 4 -16 -1 -21 -10 -5 -9 -13 -14 -19 -11 -5 4 -9 1
-9 -6 0 -7 -3 -9 -7 -5 -4 4 3 15 15 25 21 15 22 20 11 44 -6 14 -16 24 -20
21 -15 -9 -10 141 7 192 22 67 34 624 13 624 -10 0 -10 3 -2 11 9 9 20 9 43
-1 41 -17 91 -2 153 45 53 41 94 59 229 104 53 18 109 42 124 53 52 42 64 116
26 161 -14 16 -8 17 119 17 214 0 445 37 649 104 58 19 108 34 113 35 4 1 7
-35 7 -78z m444 -21 c30 -34 35 -44 26 -60 -12 -22 -78 -70 -96 -70 -14 0 -44
71 -44 103 0 36 28 64 66 66 7 1 28 -17 48 -39z m-1557 -70 c140 2 142 2 168
-24 21 -21 24 -29 15 -46 -16 -30 -47 -47 -156 -84 -54 -19 -107 -37 -116 -41
-15 -6 -18 -2 -18 28 0 20 -3 42 -6 51 -9 23 -27 20 -21 -4 13 -50 -28 -127
-83 -155 -69 -35 -70 -34 -70 52 0 43 -7 105 -15 138 -8 33 -14 64 -15 68 0
17 48 26 110 21 36 -3 129 -5 207 -4z m1293 -26 c9 -16 28 -47 43 -69 38 -55
37 -109 -4 -164 -33 -47 -43 -48 -73 -7 -18 23 -22 45 -24 137 -3 77 0 114 9
125 16 20 31 14 49 -22z m-1666 -30 c11 -30 6 -34 -44 -34 -27 0 -50 -4 -50
-10 0 -13 44 -23 80 -18 34 5 41 -7 9 -15 -13 -3 -18 -10 -14 -17 4 -7 16 -10
26 -7 15 4 20 -2 25 -29 3 -19 4 -40 1 -47 -5 -14 -214 -87 -251 -87 -31 0
-80 40 -96 80 -17 41 -8 125 17 158 25 34 51 39 184 41 89 1 108 -2 113 -15z"/>
<path d="M6074 8632 c-50 -37 -127 -120 -147 -158 -29 -56 -37 -111 -43 -291
-6 -158 -5 -183 8 -183 12 0 16 34 24 193 12 239 24 272 139 383 41 39 75 74
75 78 0 12 -18 5 -56 -22z"/>
<path d="M6565 7665 c-16 -15 -25 -36 -25 -55 0 -19 9 -40 25 -55 15 -16 36
-25 55 -25 19 0 40 9 55 25 16 15 25 36 25 55 0 19 -9 40 -25 55 -15 16 -36
25 -55 25 -19 0 -40 -9 -55 -25z"/>
<path d="M6849 7490 c-24 -23 -28 -34 -23 -57 10 -44 33 -63 74 -63 39 0 62
18 74 57 9 28 -20 79 -48 87 -36 10 -47 7 -77 -24z"/>
<path d="M6529 7265 c-36 -20 -50 -62 -34 -102 14 -34 31 -43 80 -43 36 0 75
37 75 71 0 34 -23 68 -53 79 -37 12 -36 12 -68 -5z"/>
<path d="M6660 5700 c-20 -20 -27 -74 -12 -96 11 -16 48 -34 72 -34 29 0 70
44 70 75 0 61 -87 98 -130 55z"/>
<path d="M6204 5571 c-38 -23 -50 -61 -30 -99 28 -54 102 -62 133 -15 50 77
-27 161 -103 114z"/>
<path d="M6475 5525 c-32 -31 -33 -74 -2 -103 72 -67 172 34 102 103 -13 14
-36 25 -50 25 -14 0 -37 -11 -50 -25z"/>
<path d="M7010 5478 c-1 -24 -2 -155 -3 -293 l-2 -250 -70 -6 c-38 -4 -187
-10 -330 -14 -256 -8 -453 0 -653 26 -56 8 -87 8 -94 1 -14 -14 5 -19 172 -37
316 -36 755 -33 1063 8 13 1 27 -13 45 -48 22 -41 27 -63 27 -122 0 -64 -3
-75 -25 -97 -48 -48 -130 -61 -378 -60 -139 0 -219 -3 -213 -9 26 -26 349 -35
473 -12 134 23 181 70 180 175 -1 60 -31 153 -62 193 -17 22 -20 41 -20 139 0
62 -4 119 -9 127 -17 26 -23 -10 -22 -129 0 -111 -1 -119 -20 -125 -11 -4 -23
-4 -26 -1 -3 3 -5 127 -4 275 0 148 -2 276 -5 285 -11 30 -24 16 -24 -26z"/>
<path d="M7897 6160 c-69 -18 -117 -49 -148 -97 -71 -113 -29 -147 346 -284
225 -81 308 -116 615 -254 491 -221 1005 -435 1044 -435 34 0 62 26 85 79 40
95 76 331 52 345 -7 4 -112 36 -234 71 -133 38 -308 97 -437 148 -681 270
-1119 423 -1230 432 -30 2 -72 0 -93 -5z m328 -118 c221 -73 524 -186 920
-342 172 -68 365 -136 452 -160 139 -39 151 -44 141 -60 -11 -17 -19 -16 -136
26 -132 47 -142 49 -142 35 0 -11 68 -40 178 -76 45 -15 80 -30 77 -35 -3 -4
-33 1 -67 12 -35 10 -130 37 -212 59 -81 21 -214 64 -294 94 -143 54 -227 71
-127 26 141 -64 271 -109 470 -161 l220 -57 -3 -46 c-5 -61 7 -129 21 -124 6
2 12 34 14 73 5 90 36 158 76 162 33 4 33 1 11 -129 -18 -104 -49 -189 -70
-189 -32 0 -545 216 -1114 470 -162 72 -374 160 -470 195 -320 116 -390 147
-390 176 0 29 59 88 105 105 66 24 142 12 340 -54z"/>
<path d="M7796 5729 c-68 -19 -140 -124 -140 -204 0 -75 25 -111 98 -140 77
-31 147 -80 232 -162 88 -84 118 -103 231 -148 51 -20 152 -73 225 -117 203
-123 265 -158 368 -205 249 -116 803 -313 880 -313 61 0 82 29 108 147 27 121
28 169 2 210 -28 46 -48 56 -215 107 -558 169 -1047 370 -1273 525 -31 21
-120 87 -197 146 -187 143 -251 174 -319 154z m99 -73 c28 -12 112 -71 187
-129 232 -181 395 -275 683 -395 214 -90 734 -273 844 -297 25 -5 31 -11 26
-23 -4 -10 -10 -25 -12 -35 -3 -10 -11 -16 -17 -13 -164 69 -517 198 -524 191
-12 -12 21 -28 203 -95 105 -39 220 -83 258 -96 50 -20 67 -30 67 -45 0 -10
-4 -19 -8 -19 -5 0 -51 18 -103 41 -125 54 -267 109 -285 109 -20 0 -17 -17 4
-23 9 -3 95 -37 190 -76 95 -39 179 -71 187 -71 14 0 19 -12 30 -72 9 -57 20
-46 17 16 -4 60 19 156 42 175 12 10 20 9 40 -4 44 -29 47 -61 19 -182 -13
-59 -30 -111 -36 -115 -16 -10 -30 -6 -265 73 -409 138 -679 257 -907 399
-150 94 -208 125 -324 170 -72 29 -97 46 -180 123 -94 88 -217 170 -272 182
-33 8 -54 51 -45 97 12 61 20 65 68 39 87 -48 168 -113 235 -187 79 -88 137
-129 305 -215 121 -61 217 -116 290 -166 20 -14 43 -23 50 -21 19 7 -162 122
-331 212 -173 92 -227 130 -281 199 -51 64 -111 113 -212 174 -43 25 -78 50
-78 55 0 9 60 48 75 48 6 0 33 -11 60 -24z"/>
</g>
</svg>
